<?xml version="1.0" encoding="UTF-8" standalone="no"?>
<!-- Created with Inkscape (http://www.inkscape.org/) -->

<svg
   xmlns:dc="http://purl.org/dc/elements/1.1/"
   xmlns:cc="http://creativecommons.org/ns#"
   xmlns:rdf="http://www.w3.org/1999/02/22-rdf-syntax-ns#"
   xmlns:svg="http://www.w3.org/2000/svg"
   xmlns="http://www.w3.org/2000/svg"
   xmlns:sodipodi="http://sodipodi.sourceforge.net/DTD/sodipodi-0.dtd"
   xmlns:inkscape="http://www.inkscape.org/namespaces/inkscape"
   version="1.1"
   id="svg815"
   width="128"
   height="296"
   viewBox="0 0 128 296"
   sodipodi:docname="Logo_V1.svg"
   inkscape:version="0.92.3 (2405546, 2018-03-11)"
   inkscape:export-filename="/home/pascal/Documents/Pascal/Projets/InspiMason/Github/Logo_BIG.png"
   inkscape:export-xdpi="104.4663"
   inkscape:export-ydpi="104.4663">
  <metadata
     id="metadata821">
    <rdf:RDF>
      <cc:Work
         rdf:about="">
        <dc:format>image/svg+xml</dc:format>
        <dc:type
           rdf:resource="http://purl.org/dc/dcmitype/StillImage" />
        <dc:title></dc:title>
      </cc:Work>
    </rdf:RDF>
  </metadata>
  <defs
     id="defs819" />
  <sodipodi:namedview
     pagecolor="#ffffff"
     bordercolor="#666666"
     borderopacity="1"
     objecttolerance="10"
     gridtolerance="10"
     guidetolerance="10"
     inkscape:pageopacity="0"
     inkscape:pageshadow="2"
     inkscape:window-width="1853"
     inkscape:window-height="1052"
     id="namedview817"
     showgrid="false"
     inkscape:zoom="0.2079135"
     inkscape:cx="666.44969"
     inkscape:cy="776.90823"
     inkscape:window-x="67"
     inkscape:window-y="0"
     inkscape:window-maximized="1"
     inkscape:current-layer="svg815" />
  <rect
     style="opacity:1;fill:#000000;fill-opacity:1;fill-rule:nonzero;stroke:none;stroke-width:15.96084309;stroke-linejoin:miter;stroke-miterlimit:4;stroke-dasharray:none;stroke-opacity:1"
     id="rect876"
     width="1081.0811"
     height="2500"
     x="-392.48795"
     y="-1313.986"
     transform="rotate(90)" />
  <path
     style="fill:#ffffff;stroke-width:5.72631216"
     d="m -1094.9115,59.037617 c 15.1149,-146.519341 51.2173,-255.220607 97.77727,-294.398227 l 17.84544,-15.01596 473.29814,1.52821 473.298142,1.52821 27.7032096,13.63868 c 15.3411314,7.55262 47.5669764,33.74409 72.2177364,58.69468 38.618072,39.08784 47.152532,45.05608 64.430232,45.05608 15.68641,0 21.30076,-3.04003 26.43835,-14.31579 7.35507,-16.14257 24.41917,-18.75203 37.44493,-5.72627 6.42956,6.42956 22.26901,8.58944 62.98944,8.58944 63.25245,0 67.97923,2.7859 80.74874,47.593245 36.11775,126.734459 28.64687,502.225925 -11.20254,563.043585 -8.32381,12.70388 -12.3049,13.53125 -65.10954,13.53125 -48.9712,0 -57.5837,1.48082 -66.60811,11.45261 -13.70709,15.1462 -22.58412,14.44409 -36.19789,-2.86317 -8.04468,-10.22711 -16.79054,-14.31571 -30.62213,-14.31571 -16.52804,0 -25.62491,6.34941 -62.165283,43.39003 -23.542229,23.86445 -55.68826,50.27711 -71.435557,58.69468 l -28.631588,15.30465 -469.557602,1.48403 c -461.40836,1.4582 -469.88268,1.28455 -488.28657,-10.00895 -59.08712,-36.25836 -102.50152,-191.77593 -107.12182,-383.72753 -1.2508,-51.9663 -0.017,-116.387249 2.747,-143.157773 z m 23.0705,263.560553 c 13.2565,108.96065 49.4838,211.85068 85.16251,241.87239 l 18.61259,15.66148 h 454.58766 c 537.646543,0 488.784803,6.22272 566.044431,-72.08733 42.912332,-43.49578 49.613769,-48.16529 69.124409,-48.16529 19.64383,0 21.28159,-1.16951 18.04088,-12.8842 -1.96031,-7.08623 -7.84004,-37.36419 -13.06596,-67.28412 -13.96647,-79.96183 -14.06884,-322.72078 -0.17315,-410.938854 5.5875,-35.473311 11.62923,-68.328041 13.4261,-73.010476 2.53522,-6.60684 -1.57187,-8.51351 -18.33767,-8.51351 -19.48184,0 -26.010639,-4.52618 -66.449828,-46.06681 -29.289527,-30.08741 -55.27880078,-50.92432 -74.923818,-60.07035 l -30.078547,-14.00355 -459.097217,-0.0591 -459.09721,-0.0591 -17.9217,15.08015 c -35.06708,29.50692 -66.25328,111.46714 -82.72378,217.40523507 -9.5536,61.44915493 -11.4275,254.91393493 -3.1296,323.11706493 z m 29.0647,-298.826684 c 14.3574,-148.652196 56.07805,-244.177956 97.0642,-222.242826 15.01689,8.03674 13.99552,10.23801 -3.22331,6.94646 -26.78961,-5.1212 -46.30735,24.70126 -64.99619,99.311737 -18.557,74.083953 -25.6536,147.400676 -25.9649,268.251693 -0.1613,62.77576 -2.0447,107.87052 -4.1844,100.21047 -5.3998,-19.33066 -4.5059,-192.317653 1.3046,-252.477534 z m 40.6693,463.305234 c 3.75917,-9.52111 13.47252,37.32171 6.25208,30.06588 -7.26818,-14.00076 -14.11958,-33.4989 -15.98348,-42.9473 -2.1501,-10.89932 4.3702,12.41664 9.7314,12.88142 z m 419.05613,68.7185 c 15.39966,-2.36208 136.02643,-4.29476 268.05971,-4.29476 h 240.060476 l 30.348649,-14.35718 c 16.691808,-7.89646 43.2144427,-27.86698 58.939274,-44.37897 44.748395,-46.98835 58.80549,-56.56081 25.341132,-17.25659 -40.9334464,48.07677 -57.926267,61.51909 -95.575338,75.60549 -30.92348,11.56993 -40.378717,11.90692 -293.562843,10.46579 -143.88564,-0.81925 -249.01055,-3.4217 -233.61106,-5.78378 z M 145.37109,368.25848 c 9.731,72.05642 22.66655,114.52627 34.88277,114.52627 5.71791,0 7.50642,-3.21985 5.17019,-9.30786 -8.72179,-22.72872 -20.93691,-113.43682 -26.75009,-198.64324 -9.54527,-139.91107 -0.42821,-304.535053 20.97154,-378.68539 9.6212,-33.33716 2.31782,-47.87998 -11.05667,-22.01655 -33.29958,64.394252 -45.67711,327.81722 -23.21774,494.12677 z m 36.85405,-34.35786 c 3.24384,33.06943 9.03953,75.58734 12.87948,94.48413 l 6.98167,34.35785 41.5158,1.68243 c 22.83361,0.92534 41.51571,0.44088 41.51571,-1.07626 0,-1.51723 -3.75794,-19.02382 -8.3511,-38.90347 -27.59316,-119.42728 -24.14738,-430.2825137 5.87838,-530.30498 3.89603,-12.97863 3.40008,-13.12779 -38.07239,-11.45253 l -42.01984,1.69729 -7.42323,25.702875 c -4.08269,14.136656 -9.64848,45.0587 -12.36841,68.715794 -7.11926,61.920524 -7.45532,284.555911 -0.53632,355.096871 z M 193.652,4.6376174 c 2.76867,-28.3452704 7.69173,-61.8441724 10.94004,-74.4420604 5.18674,-20.115372 5.54434,-18.022889 2.93657,17.178969 -14.66757,197.990964 -14.95178,255.434124 -1.80794,365.466894 3.31917,27.78598 4.80186,51.7527 3.29493,53.25963 C 195.17692,379.93973 183.59938,107.55299 193.652,4.6376174 Z m 23.42635,9.1332766 c 2.70423,-23.3218746 6.52391,-43.936571 8.48835,-45.810473 1.96436,-1.873817 1.6375,15.919342 -0.72635,39.540372 -7.36943,73.638851 -4.23522,266.860897 5.38741,332.126097 4.87568,33.06943 10.17027,70.43362 11.76571,83.0315 l 2.90085,22.90533 -8.35313,-25.01681 C 214.91492,355.77841 203.96298,126.88162 217.07835,13.770894 Z m 23.09865,6.605828 c 6.481,-68.136317 17.61816,-115.584037 13.10321,-55.823311 -12.9239,171.059209 -12.89037,292.949489 0.10811,392.252449 2.4962,19.07036 1.9451,22.55009 -2.12019,13.38708 C 235.21721,334.01388 228.99938,137.8948 240.17742,20.376722 Z m 39.51174,256.260728 c 5.80684,91.89527 18.54417,175.26267 28.32036,185.36013 5.60591,5.79004 14.34552,-22.65126 24.40566,-79.42331 9.79231,-55.26039 9.638,-363.051433 -0.21115,-420.88395 -9.53497,-55.988767 -18.2745,-82.63885 -24.92078,-75.99265 -8.70262,8.70262 -22.76588,95.379137 -27.48843,169.420353 -6.60726,103.589017 -6.61436,118.518247 -0.10557,221.519427 z m 34.01115,-333.308447 c 22.20059,52.1486482 21.94958,398.848057 -0.31588,436.287247 -3.26258,5.48606 -3.61909,1.30321 -0.96807,-11.35777 5.48556,-26.19781 5.44113,-346.162163 -0.0591,-397.978717 -2.94029,-27.719595 -2.5272,-36.03294 1.33927,-26.95076 z"
     id="path825"
     inkscape:connector-curvature="0"
     sodipodi:nodetypes="cccccssssssscsccscccscsccscssscsccscccccssccsscsccsccccsscscsccscscsccccccsscccccsccccccccscccccsscccccccccccsccccaccc" />
  <flowRoot
     xml:space="preserve"
     id="flowRoot827"
     style="font-style:normal;font-variant:normal;font-weight:normal;font-stretch:normal;font-size:37.33333206px;line-height:100%;font-family:Ubuntu;-inkscape-font-specification:'Ubuntu, Normal';font-variant-ligatures:normal;font-variant-caps:normal;font-variant-numeric:normal;font-feature-settings:normal;text-align:start;letter-spacing:0px;word-spacing:0px;writing-mode:lr-tb;text-anchor:start;fill:#ffffff;fill-opacity:1;stroke:none;stroke-width:1px;stroke-linecap:butt;stroke-linejoin:miter;stroke-opacity:1"
     transform="matrix(9.5193429,0,0,9.6346959,-1265.5853,-381.59043)"><flowRegion
       id="flowRegion829"
       style="fill:#ffffff"><rect
         id="rect831"
         width="159.6745"
         height="100.73226"
         x="41.661835"
         y="21.719807"
         style="fill:#ffffff" /></flowRegion><flowPara
       id="flowPara833"
       style="font-style:normal;font-variant:normal;font-weight:normal;font-stretch:normal;font-size:42.66666794px;font-family:'Kenyan Coffee';-inkscape-font-specification:'Kenyan Coffee, Normal';font-variant-ligatures:normal;font-variant-caps:normal;font-variant-numeric:normal;font-feature-settings:normal;text-align:start;writing-mode:lr-tb;text-anchor:start;fill:#ffffff">Inspi</flowPara><flowPara
       id="flowPara835"
       style="font-style:normal;font-variant:normal;font-weight:normal;font-stretch:normal;font-size:42.66666794px;font-family:'Kenyan Coffee';-inkscape-font-specification:'Kenyan Coffee, Normal';font-variant-ligatures:normal;font-variant-caps:normal;font-variant-numeric:normal;font-feature-settings:normal;text-align:start;writing-mode:lr-tb;text-anchor:start;fill:#ffffff">Mason</flowPara></flowRoot>  <flowRoot
     xml:space="preserve"
     id="flowRoot837"
     style="font-style:normal;font-variant:normal;font-weight:normal;font-stretch:normal;font-size:13.33333302px;line-height:100%;font-family:'Kenyan Coffee';-inkscape-font-specification:'Kenyan Coffee, Normal';font-variant-ligatures:normal;font-variant-caps:normal;font-variant-numeric:normal;font-feature-settings:normal;text-align:start;letter-spacing:0px;word-spacing:0px;writing-mode:lr-tb;text-anchor:start;fill:#000000;fill-opacity:1;stroke:none;stroke-width:1px;stroke-linecap:butt;stroke-linejoin:miter;stroke-opacity:1"
     transform="translate(0,168)"><flowRegion
       id="flowRegion839"
       style="font-style:normal;font-variant:normal;font-weight:normal;font-stretch:normal;font-size:13.33333302px;font-family:'Kenyan Coffee';-inkscape-font-specification:'Kenyan Coffee, Normal';font-variant-ligatures:normal;font-variant-caps:normal;font-variant-numeric:normal;font-feature-settings:normal;text-align:start;writing-mode:lr-tb;text-anchor:start"><rect
         id="rect841"
         width="86.875069"
         height="115.73322"
         x="196.89679"
         y="5.6534472"
         style="font-style:normal;font-variant:normal;font-weight:normal;font-stretch:normal;font-size:13.33333302px;font-family:'Kenyan Coffee';-inkscape-font-specification:'Kenyan Coffee, Normal';font-variant-ligatures:normal;font-variant-caps:normal;font-variant-numeric:normal;font-feature-settings:normal;text-align:start;writing-mode:lr-tb;text-anchor:start" /></flowRegion><flowPara
       id="flowPara845"></flowPara></flowRoot>  <flowRoot
     xml:space="preserve"
     id="flowRoot847"
     style="font-style:normal;font-variant:normal;font-weight:normal;font-stretch:normal;font-size:26.66666603px;line-height:100%;font-family:Ubuntu;-inkscape-font-specification:'Ubuntu, Normal';font-variant-ligatures:normal;font-variant-caps:normal;font-variant-numeric:normal;font-feature-settings:normal;text-align:start;letter-spacing:0px;word-spacing:0px;writing-mode:lr-tb;text-anchor:start;fill:#ffffff;fill-opacity:1;stroke:none;stroke-width:1px;stroke-linecap:butt;stroke-linejoin:miter;stroke-opacity:1"
     transform="matrix(8.4459459,0,0,8.4459459,-1268.757,-396.02835)"><flowRegion
       id="flowRegion849"
       style="fill:#ffffff"><rect
         id="rect851"
         width="93.789001"
         height="110.02171"
         x="199.90285"
         y="12.266774"
         style="fill:#ffffff" /></flowRegion><flowPara
       id="flowPara853"
       style="font-style:normal;font-variant:normal;font-weight:normal;font-stretch:normal;font-size:24px;font-family:'Kenyan Coffee';-inkscape-font-specification:'Kenyan Coffee, Normal';font-variant-ligatures:normal;font-variant-caps:normal;font-variant-numeric:normal;font-feature-settings:normal;text-align:center;writing-mode:lr-tb;text-anchor:middle;fill:#ffffff">Conserver, échanger et afficher les bons mots...</flowPara></flowRoot></svg>
