<?xml version="1.0" encoding="UTF-8" standalone="no"?>
<!-- Created with Inkscape (http://www.inkscape.org/) -->

<svg
   xmlns:dc="http://purl.org/dc/elements/1.1/"
   xmlns:cc="http://creativecommons.org/ns#"
   xmlns:rdf="http://www.w3.org/1999/02/22-rdf-syntax-ns#"
   xmlns:svg="http://www.w3.org/2000/svg"
   xmlns="http://www.w3.org/2000/svg"
   xmlns:sodipodi="http://sodipodi.sourceforge.net/DTD/sodipodi-0.dtd"
   xmlns:inkscape="http://www.inkscape.org/namespaces/inkscape"
   version="1.1"
   id="svg815"
   width="296"
   height="128"
   viewBox="0 0 296 128"
   sodipodi:docname="Logo_V1.svg"
   inkscape:version="0.92.3 (2405546, 2018-03-11)">
  <metadata
     id="metadata821">
    <rdf:RDF>
      <cc:Work
         rdf:about="">
        <dc:format>image/svg+xml</dc:format>
        <dc:type
           rdf:resource="http://purl.org/dc/dcmitype/StillImage" />
        <dc:title></dc:title>
      </cc:Work>
    </rdf:RDF>
  </metadata>
  <defs
     id="defs819" />
  <sodipodi:namedview
     pagecolor="#ffffff"
     bordercolor="#666666"
     borderopacity="1"
     objecttolerance="10"
     gridtolerance="10"
     guidetolerance="10"
     inkscape:pageopacity="0"
     inkscape:pageshadow="2"
     inkscape:window-width="1853"
     inkscape:window-height="1025"
     id="namedview817"
     showgrid="false"
     inkscape:zoom="3.326616"
     inkscape:cx="168.04315"
     inkscape:cy="34.329516"
     inkscape:window-x="67"
     inkscape:window-y="27"
     inkscape:window-maximized="1"
     inkscape:current-layer="svg815" />
  <path
     style="fill:#000000;stroke-width:0.67799538"
     d="m 14.270587,51.174353 c 1.7896,-17.347893 6.06413,-30.218123 11.57683,-34.856748 l 2.1129,-1.777893 56.038498,0.180944 56.038505,0.180943 3.28006,1.614812 c 1.81639,0.894232 5.63193,3.995301 8.55058,6.949452 4.57238,4.628005 5.58286,5.334643 7.62854,5.334643 1.85727,0 2.52201,-0.359945 3.1303,-1.694992 0.87084,-1.911276 2.89123,-2.220244 4.43348,-0.677994 0.76126,0.76126 2.63665,1.016993 7.45795,1.016993 7.48909,0 8.04874,0.329852 9.56065,5.635037 4.27634,15.005366 3.39179,59.46355 -1.32638,66.664369 -0.98554,1.504131 -1.4569,1.602091 -7.70897,1.602091 -5.79819,0 -6.81791,0.17533 -7.8864,1.35599 -1.62292,1.79331 -2.67396,1.71018 -4.28583,-0.339 -0.95249,-1.21089 -1.988,-1.69498 -3.62566,-1.69498 -1.95692,0 -3.03399,0.75177 -7.36037,5.13738 -2.7874,2.82555 -6.59349,5.95281 -8.45797,6.94945 l -3.38998,1.81207 -55.595625,0.17571 c -54.630748,0.17265 -55.634108,0.15209 -57.813128,-1.18506 -6.99591,-4.29299 -12.13618,-22.706264 -12.68322,-45.433334 -0.1481,-6.152808 -0.002,-13.780256 0.32524,-16.949883 z m 2.73155,31.205569 c 1.56957,12.900944 5.85888,25.083118 10.08324,28.637688 l 2.20373,1.85432 h 53.823185 c 63.657348,0 57.872118,0.73677 67.019658,-8.53514 5.08082,-5.149898 5.87427,-5.702761 8.18433,-5.702761 2.32583,0 2.51974,-0.138479 2.13604,-1.52549 -0.2321,-0.839019 -0.92826,-4.42392 -1.54701,-7.966447 -1.65363,-9.467474 -1.66575,-38.210139 -0.0205,-48.655156 0.66156,-4.200045 1.3769,-8.090043 1.58965,-8.644441 0.30017,-0.782246 -0.18611,-1.008003 -2.17118,-1.008003 -2.30665,0 -3.07966,-0.5359 -7.86766,-5.454312 -3.46788,-3.562344 -6.54501,-6.029432 -8.87098,-7.112328 l -3.5613,-1.65802 -54.357111,-0.0066 -54.357112,-0.0066 -2.12193,1.785489 c -4.15194,3.493628 -7.84439,13.197715 -9.79449,25.740779 -1.13115,7.275584 -1.35302,30.181813 -0.37055,38.257068 z m 3.44126,-35.381073 c 1.69991,-17.600428 6.63964,-28.91067 11.4924,-26.313557 1.778,0.951555 1.65707,1.21218 -0.38164,0.822458 -3.17189,-0.606347 -5.48279,2.924633 -7.69555,11.75851 -2.19715,8.771544 -3.03738,17.452241 -3.07424,31.761004 -0.0191,7.432653 -0.2421,12.771867 -0.49544,11.864917 -0.63933,-2.288743 -0.53349,-22.770404 0.15447,-29.893332 z m 4.81525,54.855331 c 0.445078,-1.1273 1.595145,4.41889 0.74024,3.5598 -0.860546,-1.65769 -1.67176,-3.96627 -1.89244,-5.08496 -0.25458,-1.290477 0.517428,1.47013 1.1522,1.52516 z m 49.616245,8.13627 c 1.823311,-0.27967 16.105529,-0.5085 31.738268,-0.5085 h 28.42316 l 3.59328,-1.69989 c 1.97631,-0.93494 5.11659,-3.29945 6.97841,-5.25447 5.29821,-5.563418 6.96257,-6.696796 3.00039,-2.04318 -4.84652,5.69229 -6.85847,7.28386 -11.31612,8.95169 -3.66134,1.36988 -4.78084,1.40978 -34.75784,1.23915 -17.036059,-0.097 -29.482854,-0.40513 -27.659548,-0.6848 z M 161.12005,87.786104 c 1.15215,8.531484 2.68372,13.559906 4.13012,13.559906 0.677,0 0.88876,-0.38123 0.61215,-1.10205 -1.03266,-2.691076 -2.47893,-13.430915 -3.16721,-23.519354 -1.13016,-16.565475 -0.0507,-36.056951 2.48303,-44.836352 1.13915,-3.947118 0.27443,-5.668989 -1.30911,-2.606756 -3.94267,7.624274 -5.40817,38.813556 -2.74898,58.504606 z m 4.36352,-4.067972 c 0.38407,3.915423 1.07028,8.949539 1.52493,11.186924 l 0.82663,4.067972 4.91547,0.199199 c 2.7035,0.109561 4.91546,0.05221 4.91546,-0.127429 0,-0.179642 -0.44494,-2.252421 -0.98877,-4.606171 -3.26703,-14.140195 -2.85905,-50.94545 0.696,-62.78811 0.46129,-1.536672 0.40257,-1.554337 -4.50777,-1.355987 l -4.97515,0.200962 -0.87891,3.043225 c -0.48339,1.673778 -1.14238,5.334952 -1.46442,8.135945 -0.84292,7.331391 -0.88271,33.691419 -0.0635,42.04347 z m 1.35294,-38.984737 c 0.32781,-3.356077 0.9107,-7.32235 1.2953,-8.813938 0.61411,-2.38166 0.65645,-2.133916 0.34769,2.033986 -1.73664,23.442128 -1.77029,30.243402 -0.21406,43.271286 0.39299,3.289851 0.56854,6.127516 0.39012,6.305937 -1.6385,1.638498 -3.00928,-30.612087 -1.81905,-42.797271 z m 2.77368,1.081384 c 0.32018,-2.761314 0.77243,-5.202097 1.00502,-5.423964 0.23258,-0.221863 0.19388,1.884849 -0.086,4.68158 -0.87254,8.718844 -0.50145,31.596333 0.63787,39.323731 0.57728,3.915423 1.20416,8.339343 1.39306,9.830931 l 0.34346,2.711985 -0.98901,-2.961992 c -2.56055,-7.668586 -3.85726,-34.769967 -2.3044,-48.162271 z m 2.73488,0.782124 c 0.76735,-8.067338 2.08599,-13.685152 1.55142,-6.609474 -1.53019,20.253402 -1.52622,34.685211 0.0128,46.442683 0.29555,2.257928 0.2303,2.669932 -0.25103,1.585029 -1.90043,-4.2836 -2.63662,-27.504095 -1.31314,-41.418238 z m 4.67819,30.341272 c 0.68753,10.880397 2.19563,20.751103 3.35313,21.946639 0.66374,0.685545 1.69851,-2.681907 2.88963,-9.403723 1.15941,-6.542825 1.14114,-42.985287 -0.025,-49.832661 -1.12894,-6.629061 -2.1637,-9.784439 -2.95062,-8.997526 -1.03039,1.030392 -2.69548,11.292889 -3.25463,20.05937 -0.7823,12.264937 -0.78314,14.032557 -0.0125,26.227901 z m 4.02692,-39.46372 c 2.62855,6.174404 2.59883,47.223611 -0.0374,51.656409 -0.38629,0.649549 -0.4285,0.154298 -0.11462,-1.34476 0.64949,-3.101818 0.64423,-40.985599 -0.007,-47.120681 -0.34813,-3.281994 -0.29922,-4.266301 0.15857,-3.190968 z"
     id="path825"
     inkscape:connector-curvature="0"
     sodipodi:nodetypes="cccccssssssscsccscccscsccscssscsccscccccssccsscsccsccccsscscsccscscsccccccsscccccsccccccccscccccsscccccccccccsccccaccc" />
  <flowRoot
     xml:space="preserve"
     id="flowRoot827"
     style="font-style:normal;font-variant:normal;font-weight:normal;font-stretch:normal;font-size:37.33333206px;line-height:100%;font-family:Ubuntu;-inkscape-font-specification:'Ubuntu, Normal';font-variant-ligatures:normal;font-variant-caps:normal;font-variant-numeric:normal;font-feature-settings:normal;text-align:start;letter-spacing:0px;word-spacing:0px;writing-mode:lr-tb;text-anchor:start;fill:#000000;fill-opacity:1;stroke:none;stroke-width:1px;stroke-linecap:butt;stroke-linejoin:miter;stroke-opacity:1"
     transform="matrix(1.1270902,0,0,1.140748,-5.9371951,-0.99600204)"><flowRegion
       id="flowRegion829"><rect
         id="rect831"
         width="159.6745"
         height="100.73226"
         x="41.661835"
         y="21.719807" /></flowRegion><flowPara
       id="flowPara833"
       style="font-style:normal;font-variant:normal;font-weight:normal;font-stretch:normal;font-size:42.66666794px;font-family:'Kenyan Coffee';-inkscape-font-specification:'Kenyan Coffee, Normal';font-variant-ligatures:normal;font-variant-caps:normal;font-variant-numeric:normal;font-feature-settings:normal;text-align:start;writing-mode:lr-tb;text-anchor:start">Inspi</flowPara><flowPara
       id="flowPara835"
       style="font-style:normal;font-variant:normal;font-weight:normal;font-stretch:normal;font-size:42.66666794px;font-family:'Kenyan Coffee';-inkscape-font-specification:'Kenyan Coffee, Normal';font-variant-ligatures:normal;font-variant-caps:normal;font-variant-numeric:normal;font-feature-settings:normal;text-align:start;writing-mode:lr-tb;text-anchor:start">Mason</flowPara></flowRoot>  <flowRoot
     xml:space="preserve"
     id="flowRoot837"
     style="fill:black;stroke:none;stroke-opacity:1;stroke-width:1px;stroke-linejoin:miter;stroke-linecap:butt;fill-opacity:1;font-family:'Kenyan Coffee';font-style:normal;font-weight:normal;font-size:13.33333333px;line-height:100%;letter-spacing:0px;word-spacing:0px;-inkscape-font-specification:'Kenyan Coffee, Normal';font-stretch:normal;font-variant:normal;text-anchor:start;text-align:start;writing-mode:lr;font-variant-ligatures:normal;font-variant-caps:normal;font-variant-numeric:normal;font-feature-settings:normal;"><flowRegion
       id="flowRegion839"
       style="-inkscape-font-specification:'Kenyan Coffee, Normal';font-family:'Kenyan Coffee';font-weight:normal;font-style:normal;font-stretch:normal;font-variant:normal;font-size:13.33333333px;text-anchor:start;text-align:start;writing-mode:lr;font-variant-ligatures:normal;font-variant-caps:normal;font-variant-numeric:normal;font-feature-settings:normal;"><rect
         id="rect841"
         width="86.875069"
         height="115.73322"
         x="196.89679"
         y="5.6534472"
         style="-inkscape-font-specification:'Kenyan Coffee, Normal';font-family:'Kenyan Coffee';font-weight:normal;font-style:normal;font-stretch:normal;font-variant:normal;font-size:13.33333333px;text-anchor:start;text-align:start;writing-mode:lr;font-variant-ligatures:normal;font-variant-caps:normal;font-variant-numeric:normal;font-feature-settings:normal;" /></flowRegion><flowPara
       id="flowPara845"></flowPara></flowRoot>  <flowRoot
     xml:space="preserve"
     id="flowRoot847"
     style="font-style:normal;font-variant:normal;font-weight:normal;font-stretch:normal;font-size:26.66666603px;line-height:100%;font-family:Ubuntu;-inkscape-font-specification:'Ubuntu, Normal';font-variant-ligatures:normal;font-variant-caps:normal;font-variant-numeric:normal;font-feature-settings:normal;text-align:start;letter-spacing:0px;word-spacing:0px;writing-mode:lr-tb;text-anchor:start;fill:#000000;fill-opacity:1;stroke:none;stroke-width:1px;stroke-linecap:butt;stroke-linejoin:miter;stroke-opacity:1"
     transform="translate(-6.3127214,-2.705452)"><flowRegion
       id="flowRegion849"><rect
         id="rect851"
         width="93.789001"
         height="110.02171"
         x="199.90285"
         y="12.266774" /></flowRegion><flowPara
       id="flowPara853"
       style="font-style:normal;font-variant:normal;font-weight:normal;font-stretch:normal;font-size:24px;font-family:'Kenyan Coffee';-inkscape-font-specification:'Kenyan Coffee, Normal';font-variant-ligatures:normal;font-variant-caps:normal;font-variant-numeric:normal;font-feature-settings:normal;text-align:center;writing-mode:lr-tb;text-anchor:middle">Conservez, échangez, et affichez les bons mots...</flowPara></flowRoot></svg>
