<?xml version="1.0" encoding="UTF-8" standalone="no"?>
<!-- Created with Inkscape (http://www.inkscape.org/) -->

<svg
   xmlns:dc="http://purl.org/dc/elements/1.1/"
   xmlns:cc="http://creativecommons.org/ns#"
   xmlns:rdf="http://www.w3.org/1999/02/22-rdf-syntax-ns#"
   xmlns:svg="http://www.w3.org/2000/svg"
   xmlns="http://www.w3.org/2000/svg"
   xmlns:sodipodi="http://sodipodi.sourceforge.net/DTD/sodipodi-0.dtd"
   xmlns:inkscape="http://www.inkscape.org/namespaces/inkscape"
   width="39.999653mm"
   height="28.939009mm"
   viewBox="0 0 39.999653 28.939009"
   version="1.1"
   id="svg971"
   inkscape:version="0.92.3 (2405546, 2018-03-11)"
   sodipodi:docname="PapasInventeurs2.svg">
  <defs
     id="defs965" />
  <sodipodi:namedview
     id="base"
     pagecolor="#ffffff"
     bordercolor="#666666"
     borderopacity="1.0"
     inkscape:pageopacity="0.0"
     inkscape:pageshadow="2"
     inkscape:zoom="3.959798"
     inkscape:cx="102.36112"
     inkscape:cy="81.282223"
     inkscape:document-units="mm"
     inkscape:current-layer="layer1"
     showgrid="false"
     fit-margin-top="0"
     fit-margin-left="0"
     fit-margin-right="0"
     fit-margin-bottom="0"
     inkscape:window-width="1853"
     inkscape:window-height="1025"
     inkscape:window-x="67"
     inkscape:window-y="27"
     inkscape:window-maximized="1" />
  <metadata
     id="metadata968">
    <rdf:RDF>
      <cc:Work
         rdf:about="">
        <dc:format>image/svg+xml</dc:format>
        <dc:type
           rdf:resource="http://purl.org/dc/dcmitype/StillImage" />
        <dc:title></dc:title>
      </cc:Work>
    </rdf:RDF>
  </metadata>
  <g
     inkscape:label="Calque 1"
     inkscape:groupmode="layer"
     id="layer1"
     transform="translate(-58.604624,-92.137855)">
    <path
       style="fill:none;stroke:#000000;stroke-width:0.23764211;stroke-opacity:1"
       d="m 67.597374,120.97321 c -1.860384,-0.19086 -3.611988,-0.86663 -4.574613,-1.76517 -0.643528,-0.60068 -0.772337,-0.8941 -0.772337,-1.7593 0,-0.57113 0.118643,-1.27198 0.263642,-1.55749 0.364881,-0.71834 1.828311,-2.06372 2.244811,-2.06372 0.449119,0 0.437282,0.33903 -0.02526,0.72289 -0.533813,0.44302 -0.349073,1.51707 0.276301,1.60635 0.625523,0.0893 1.99332,-1.02703 1.99332,-1.62682 0,-0.5366 2.424696,-3.07886 2.936465,-3.07886 0.199956,0 0.517974,-0.22033 0.706686,-0.48987 0.255587,-0.36491 0.846213,-0.57769 2.315459,-0.83418 1.987759,-0.347 3.210739,-0.2898 4.207638,0.19676 0.438447,0.21416 0.745519,0.1656 1.610441,-0.25486 0.83754,-0.4069 1.497331,-0.5192 3.050371,-0.5192 1.79473,0 2.140645,0.0794 3.666863,0.84305 2.083426,1.04231 3.496952,2.54908 3.734861,3.98122 0.342573,2.06224 1.290939,2.9132 2.421258,2.17257 0.601168,-0.3939 0.638796,-0.59571 0.31897,-1.71088 -0.427245,-1.48971 0.646251,-0.69915 1.158578,0.85321 0.281368,0.85253 0.27153,1.10459 -0.07895,2.0223 -0.456727,1.19592 -1.023905,1.7859 -2.11633,2.20139 -3.182517,1.21049 -3.047656,1.20008 -6.609071,0.50991 -1.454519,-0.28185 -2.080244,-0.55173 -3.208169,-1.38363 -1.602465,-1.18197 -2.13554,-1.73539 -2.554841,-2.6524 l -0.296741,-0.64899 -0.835822,1.24311 c -0.712098,1.05906 -1.149997,1.40261 -2.958254,2.32088 -1.781471,0.90466 -2.791828,1.24714 -5.211777,1.76668 -0.130713,0.0281 -0.879274,-0.014 -1.663493,-0.0952 z m 19.223163,-12.47355 c -1.239409,-0.3879 -3.459197,-1.85464 -4.285886,-2.83197 -0.349746,-0.41347 -0.897689,-1.32124 -1.217656,-2.0173 -0.536322,-1.16673 -0.56466,-1.40455 -0.362874,-3.04535 0.271474,-2.207374 0.113507,-2.346226 -2.390593,-2.10167 -2.2225,0.216966 -2.529833,0.495512 -2.360247,2.13867 0.116342,1.12735 0.04325,1.42767 -0.64398,2.64537 -1.227712,2.17538 -2.99202,4.03079 -4.258587,4.47847 -2.608319,0.92192 -3.983588,1.0345 -6.645568,0.54402 -1.260846,-0.23241 -1.872958,-0.51511 -3.099093,-1.43164 -0.840355,-0.62819 -1.706414,-1.43567 -1.924578,-1.79441 -0.581338,-0.95594 -0.994078,-2.92025 -1.023462,-4.87086 -0.0233,-1.540819 0.05633,-1.857005 0.789692,-3.139233 1.4828,-2.59261 3.291177,-4.188723 4.872677,-4.300771 0.39211,-0.02807 1.38573,-0.129954 2.208043,-0.226789 0.950631,-0.111991 1.686253,-0.08252 2.019959,0.08112 0.288662,0.141462 1.28922,0.489477 2.22346,0.773244 2.031264,0.616962 3.813698,1.970315 4.418071,3.354515 0.447926,1.025856 0.481593,1.030122 2.289215,0.290279 1.058744,-0.433341 2.069839,-0.413975 3.480532,0.0668 0.925521,0.315343 1.179129,0.332465 1.261565,0.08505 0.203352,-0.610058 1.826284,-2.206479 3.002138,-2.953115 1.762433,-1.119098 5.137336,-2.23059 6.361043,-2.094965 0.738513,0.08196 2.65775,1.076715 3.699238,1.917547 1.813272,1.463941 3.370022,4.718674 3.370631,7.047018 2.39e-4,1.25742 -0.515783,2.9045 -1.248379,3.98405 -0.693023,1.02123 -2.539149,2.49393 -3.315551,2.6449 -0.296993,0.0578 -1.235086,0.32626 -2.084658,0.59664 -1.739215,0.55359 -3.684723,0.61436 -5.135152,0.16055 z m -17.788691,-1.44025 c 2.059086,-0.67214 2.602872,-1.04261 3.764644,-2.5646 1.173449,-1.53731 1.579261,-2.40744 1.734634,-3.71931 0.256541,-2.166061 -1.088445,-4.742419 -2.976232,-5.701109 -2.317496,-1.17689 -6.099194,-1.101274 -7.950335,0.158865 -1.197211,0.815038 -2.721518,2.757425 -3.006001,3.830463 -0.625713,2.360121 -0.542873,2.881771 0.771561,4.858561 0.782535,1.17687 3.151827,2.81996 4.918717,3.41113 0.458288,0.15325 0.856685,0.28703 0.885323,0.29707 0.02863,0.0112 0.864597,-0.24699 1.857689,-0.57115 z m -2.455661,-1.13481 c -0.136185,-0.1642 -0.322893,-0.59824 -0.414881,-0.96476 -0.124537,-0.49621 -0.265944,-0.62493 -0.5538,-0.50412 -1.533336,0.64351 -1.659336,0.66566 -2.030995,0.35722 -0.456139,-0.37858 -0.469928,-1.12194 -0.03537,-1.90672 0.309511,-0.55894 0.283812,-0.60152 -0.602527,-0.99835 -0.727653,-0.32578 -0.925827,-0.54499 -0.925827,-1.02408 0,-0.46366 0.200798,-0.70532 0.838963,-1.009636 0.612252,-0.291963 0.792934,-0.499638 0.668635,-0.768501 -0.09366,-0.202651 -0.177137,-0.796176 -0.185445,-1.31897 -0.01488,-0.936123 -0.0025,-0.950129 0.816626,-0.921724 0.45746,0.01684 1.045624,0.09824 1.30703,0.183003 0.37556,0.121815 0.550078,-0.0084 0.831749,-0.622968 0.255924,-0.557935 0.539797,-0.798225 1.006458,-0.851975 0.54291,-0.06259 0.716553,0.06484 1.053994,0.772346 0.446724,0.936796 0.511511,0.964443 1.356651,0.579379 0.32327,-0.147357 0.862998,-0.198721 1.199392,-0.114237 0.507472,0.127429 0.611632,0.291486 0.611632,0.96377 0,0.453213 -0.182301,0.992539 -0.413753,1.223988 -0.227575,0.227631 -0.307768,0.450743 -0.178231,0.495961 2.031812,0.709274 2.355323,2.047444 0.615603,2.546384 -0.570936,0.16363 -0.716954,0.31116 -0.590286,0.59591 0.09257,0.20798 0.215618,0.77841 0.273438,1.26744 0.131751,1.11418 -0.308326,1.34002 -1.612737,0.82764 -0.897106,-0.3524 -0.933238,-0.34749 -1.083817,0.14763 -0.352393,1.15848 -1.395261,1.71689 -1.952492,1.04548 z m 1.98656,-6.667764 c -0.914626,-0.80005 -2.55687,-0.218289 -2.998388,0.412061 -0.484004,0.691003 -0.12058,2.636753 0.39393,3.014243 0.343229,0.25176 2.189015,0.69351 3.23472,-0.21986 0.954487,-1.46464 -0.113241,-2.75419 -0.363011,-2.972671 z m 22.085911,8.154264 c 0.08078,-0.13079 0.296957,-0.23773 0.480392,-0.23773 0.851787,0 2.996794,-1.05452 4.15368,-2.042 1.100629,-0.93949 1.358975,-1.33051 1.861364,-2.8173 l 0.583356,-1.7264 -0.683332,-1.400592 C 95.531337,96.086466 94.216679,94.831772 91.829119,94.20987 90.149844,93.772487 89.33157,93.775069 88.47763,94.2211 c -0.374373,0.195353 -0.873135,0.355677 -1.108356,0.356463 -0.80104,0.0028 -1.800187,0.709951 -2.885665,2.042478 -0.596023,0.731704 -1.030773,1.415945 -0.966113,1.520554 0.06467,0.104693 -0.04213,0.572446 -0.237315,1.039581 -0.441933,1.057684 -0.459453,3.243704 -0.03416,4.261554 0.518834,1.24176 2.842404,3.19849 4.271316,3.597 2.346053,0.65426 2.915557,0.7221 3.131327,0.37299 z m -1.476521,-1.71088 c -0.136185,-0.17009 -0.323845,-0.5574 -0.417,-0.86096 -0.123667,-0.40294 -0.275796,-0.5048 -0.563781,-0.3774 -0.21691,0.096 -0.784971,0.2209 -1.262329,0.27759 -0.71314,0.0848 -0.895127,0.0168 -1.020456,-0.37748 -0.08389,-0.2644 0.0051,-0.85753 0.197486,-1.3183 l 0.350016,-0.83769 -0.874233,-0.42736 c -1.176092,-0.57491 -1.219536,-1.45718 -0.09712,-1.972026 0.614068,-0.281662 0.744778,-0.456189 0.62296,-0.831766 -0.08479,-0.261313 -0.167144,-0.849561 -0.183031,-1.307013 -0.0284,-0.819107 -0.01431,-0.831513 0.921719,-0.816637 0.52281,0.0084 1.116925,0.09206 1.320246,0.18581 0.269734,0.124621 0.462468,-0.04014 0.712927,-0.609216 0.264456,-0.601019 0.509153,-0.796288 1.066147,-0.850824 0.624398,0.0384 0.778227,0.195369 1.128914,0.780626 0.348685,0.731199 0.470901,0.816694 0.865562,0.605483 0.656201,-0.351187 1.810485,-0.303724 2.135422,0.08785 0.324766,0.391324 0.120272,1.425067 -0.360912,1.824418 -0.457931,0.38004 -0.417581,0.693559 0.08926,0.693559 0.710487,0 1.478732,0.695976 1.478732,1.339626 0,0.47654 -0.190497,0.67459 -0.927214,0.96397 l -0.927217,0.36421 0.343589,0.82234 c 0.188981,0.45225 0.274954,1.03857 0.191058,1.30288 -0.125323,0.39489 -0.307316,0.4622 -1.020455,0.37749 -0.477358,-0.0567 -1.034282,-0.17739 -1.237604,-0.26805 -0.26746,-0.11929 -0.464589,0.0508 -0.712926,0.61505 -0.372729,0.84704 -1.364805,1.18166 -1.819767,0.61382 z m 0.339225,-7.237153 c -2.240812,0.711785 -2.165929,3.960263 -0.185629,4.274393 3.497187,0.67157 3.078505,-4.726661 0.185629,-4.274393 z"
       id="path1646"
       inkscape:connector-curvature="0"
       sodipodi:nodetypes="ccscsccssccccsccccccccccccccccccccccsccccccccccccccsccccccccccsccsccccccsccccsccccccccccscccccccccssccsscscccccccccccccccccccccccccccccccccsscccccccccccc" />
  </g>
</svg>
